<svg xmlns:xlink="http://www.w3.org/1999/xlink" xmlns="http://www.w3.org/2000/svg" width="220" height="46" viewBox="0 0 220 46" fill="none"><path fill-rule="evenodd" clip-rule="evenodd" d="M220 31.674V4.99325C220 2.48956 217.951 0.440391 215.447 0.440391H188.767C186.263 0.440391 184.214 2.48956 184.214 4.99325V31.674C184.214 34.1786 186.263 36.2266 188.767 36.2266H215.447C217.951 36.2266 220 34.1786 220 31.674V31.674ZM203.788 17.5687C203.788 18.9254 205.041 19.3604 207.442 20.1261C210.748 21.1879 213.076 22.4929 213.076 25.1722C213.076 28.2173 210.274 29.9573 207.194 29.9573C205.119 29.9573 203.293 29.1393 202.195 28.1384C201.031 29.2988 199.379 30.0269 197.524 30.0269C193.94 30.0269 191.138 27.3297 191.138 24.0417V7.89329C191.138 7.17997 191.66 6.6406 192.356 6.6406C193.07 6.6406 193.609 7.17997 193.609 7.89329V15.0627C194.079 14.2447 195.332 12.9918 197.524 12.9918C199.385 12.9918 201.044 13.7308 202.207 14.9086C203.225 13.6839 204.991 13.0096 206.85 13.0096C209.931 13.0096 212.675 14.9931 212.954 16.5414C213.006 17.4462 212.362 17.8294 211.858 17.8294C211.51 17.8294 211.179 17.7599 210.814 17.4117C210.309 16.6288 208.921 15.4454 206.85 15.4454C205.337 15.4454 203.788 16.0722 203.788 17.5687V17.5687ZM206.416 22.2835C203.964 21.5625 201.71 20.5429 201.367 18.0502C200.876 16.5042 199.342 15.3929 197.524 15.3929C195.314 15.3929 193.609 17.0292 193.609 19.0993V23.9542C193.609 26.0252 195.314 27.6436 197.524 27.6436C199.734 27.6436 201.543 26.0252 201.543 23.9542V21.3402C202.232 22.0436 203.038 22.5643 203.928 22.947V24.0416C203.928 24.7283 203.799 25.3854 203.573 25.9997C204.219 26.7936 205.487 27.5562 207.212 27.5562C209.074 27.5562 210.536 26.7379 210.536 25.2768C210.536 23.7458 209.008 23.0494 206.416 22.2835V22.2835ZM178.565 22.9856V19.4173C178.565 14.0444 173.992 9.67317 168.371 9.67317C162.685 9.67317 158.231 13.8716 158.231 19.2323V27.003C158.231 31.5242 162.108 36.4029 168.371 36.4029C173.184 36.4029 176.866 33.1384 177.295 30.8259C177.31 30.4508 177.259 29.742 176.755 29.2185C176.392 28.8406 175.884 28.6494 175.243 28.6494C174.655 28.6494 174.177 28.7521 173.602 29.2626L173.512 29.3732C172.987 30.2933 171.225 32.0325 168.318 32.0325C164.885 32.0325 162.759 29.2977 162.759 26.7643V24.7745H176.432C177.727 24.7745 178.565 24.0719 178.565 22.9856V22.9856ZM174.062 20.9593H162.759V19.1002C162.759 16.1457 165.224 13.8318 168.371 13.8318C171.509 13.8318 174.062 16.1836 174.062 19.0734V20.9593ZM153.813 33.7422V2.34361C153.813 1.00747 152.817 0 151.496 0C150.196 0 149.178 1.02953 149.178 2.34361V33.7422C149.178 35.0047 150.23 36.0329 151.522 36.0329C152.807 36.0329 153.813 35.0262 153.813 33.7422V33.7422ZM144.207 26.9492V12.387C144.207 11.0947 143.155 10.0434 141.863 10.0434C140.593 10.0434 139.599 11.0726 139.599 12.387V26.9224C139.599 29.7146 137.146 31.9012 134.014 31.9012C130.941 31.9012 128.534 29.7146 128.534 26.9224V12.387C128.534 11.0726 127.539 10.0434 126.269 10.0434C124.941 10.0434 123.899 11.0726 123.899 12.387V26.9492C123.899 31.3774 127.167 35.1988 131.722 36.167V43.1245C131.722 44.4013 132.775 45.4418 134.067 45.4418C135.329 45.4418 136.357 44.4013 136.357 43.1245V36.1656C140.927 35.1748 144.207 31.3528 144.207 26.9492V26.9492ZM120.891 31.1447C121.109 30.4753 120.996 29.691 120.602 29.1434C120.335 28.7731 119.821 28.3328 118.883 28.3328C117.999 28.3328 117.423 28.6988 117.162 29.4488C116.72 31.0525 115.661 31.9011 114.099 31.9011C111.194 31.9011 110.76 29.3787 110.76 27.8746V17.1357H117.112C118.367 17.1357 119.35 16.1642 119.35 14.9242C119.35 13.7052 118.346 12.713 117.112 12.713H110.76V8.92461C110.76 7.62553 109.742 6.60731 108.443 6.60731C107.165 6.60731 106.126 7.64703 106.126 8.92461V28.2179C106.126 33.2069 109.079 36.4296 113.65 36.4296C117.308 36.4296 120.015 34.4537 120.891 31.1447V31.1447ZM88.6272 17.0386C88.6272 14.9843 90.8951 14.2549 92.8373 14.2549C95.5882 14.2549 96.8658 15.6626 97.7528 17.0394L97.8195 17.12C98.5193 17.7861 99.1673 17.8755 99.7089 17.8755C100.277 17.8755 100.847 17.6306 101.234 17.219C101.527 16.9088 101.866 16.3507 101.808 15.4012C101.322 12.6916 97.5175 9.67317 92.8373 9.67317C88.4414 9.67317 83.9926 12.1036 83.9926 16.7478C83.9926 21.5861 87.8664 23.3914 92.0524 24.6238C96.0436 25.8024 97.2601 26.7657 97.2601 28.7473C97.2601 30.8346 94.9456 31.7683 92.6523 31.7683C89.8251 31.7683 87.7762 30.3281 87.0688 28.9905L87.0179 28.9136C86.5885 28.3983 85.9852 28.1479 85.1726 28.1479C83.974 28.1479 82.9611 29.2213 82.9662 30.5541C83.3495 33.2091 87.6531 36.2971 92.626 36.2971C97.285 36.2971 102 33.6495 102 28.5883C102 23.7775 98.0933 21.8593 93.8702 20.5036C90.2346 19.3443 88.6272 18.7597 88.6272 17.0386V17.0386ZM78.9664 22.9856V19.4173C78.9664 14.0444 74.3943 9.67317 68.7731 9.67317C63.0869 9.67317 58.6328 13.8716 58.6328 19.2323V27.003C58.6328 31.5242 62.5097 36.4029 68.7731 36.4029C73.5859 36.4029 77.2688 33.1384 77.6976 30.8259C77.712 30.4494 77.6611 29.7415 77.1582 29.2176C76.7956 28.8406 76.2865 28.6494 75.6453 28.6494C75.0581 28.6494 74.5793 28.7521 74.0043 29.2626L73.9146 29.3732C73.3891 30.2933 71.6276 32.0325 68.7208 32.0325C65.2874 32.0325 63.1613 29.2977 63.1613 26.7643V24.7745H76.8346C78.1297 24.7745 78.9664 24.0719 78.9664 22.9856V22.9856ZM74.4647 20.9593H63.1616V19.1002C63.1616 16.1457 65.6269 13.8318 68.7734 13.8318C71.9115 13.8318 74.4647 16.1836 74.4647 19.0734V20.9593ZM54.6385 26.9493V12.3871C54.6385 11.0577 53.6087 10.0166 52.2943 10.0166C51.0464 10.0166 50.0302 11.0798 50.0302 12.3871V26.897C50.0302 29.7036 47.5771 31.9013 44.4447 31.9013C41.3725 31.9013 38.9658 29.7036 38.9658 26.897V12.3871C38.9658 11.0798 37.9496 10.0166 36.7014 10.0166C35.3941 10.0166 34.3312 11.0798 34.3312 12.3871V26.9493C34.3312 32.2506 38.7738 36.403 44.4447 36.403C50.1609 36.403 54.6385 32.2506 54.6385 26.9493V26.9493ZM29.3332 33.7422V2.34361C29.3332 1.00747 28.337 0 27.0159 0C25.7168 0 24.6986 1.02953 24.6986 2.34361V33.7422C24.6986 35.0047 25.7499 36.0329 27.0419 36.0329C28.3265 36.0329 29.3332 35.0262 29.3332 33.7422V33.7422ZM20.3076 26.87V19.2582C20.3076 13.959 15.7465 9.64708 10.1404 9.64708C7.63581 9.64708 5.77954 10.6868 4.6346 11.9101V2.34361C4.6346 1.00747 3.62741 0 2.29128 0C0.985412 0 0 1.00747 0 2.34361V26.87C0 32.126 4.54947 36.4028 10.1404 36.4028C15.7465 36.4028 20.3076 32.126 20.3076 26.87V26.87ZM15.6989 26.7374C15.6989 29.6326 13.2577 31.9012 10.1402 31.9012C7.05303 31.9012 4.63448 29.6326 4.63448 26.7374V19.3644C4.63448 16.4545 7.05303 14.176 10.1402 14.176C13.2577 14.176 15.6989 16.4545 15.6989 19.3644V26.7374Z" fill="#0E3D8A"></path></svg>