<svg xmlns:xlink="http://www.w3.org/1999/xlink" width="170" height="48" viewBox="0 0 848 200" fill="none" xmlns="http://www.w3.org/2000/svg"><g fill="#080808"><path d="M363.785 43.9735C357.745 43.7845 351.747 45.0284 346.28 47.6034C340.813 50.1784 336.034 54.0112 332.333 58.7883C331.628 45.7372 322.574 38.3297 307.642 38.3885C301.377 38.4743 295.383 40.9615 290.898 45.3371C286.413 49.7127 283.779 55.6429 283.538 61.9041C282.774 79.1881 283.009 96.5308 283.186 113.286C283.186 120.987 283.186 128.982 283.186 136.801C283.186 156.613 296.237 163.668 308.524 163.668C320.811 163.668 333.156 155.379 333.568 136.86C333.92 120.811 333.568 101.587 332.921 78.4826C334.721 75.195 337.402 72.4743 340.663 70.6259C343.924 68.7774 347.635 67.8744 351.381 68.0182C353.803 67.7819 356.248 68.0348 358.571 68.762C360.894 69.4891 363.047 70.6756 364.902 72.251C367.942 76.0694 369.394 80.9115 368.959 85.7724V155.673H398.353V85.1258C399.103 74.1408 396.074 63.2297 389.77 54.2028C386.497 50.6402 382.457 47.8681 377.955 46.096C373.454 44.3239 368.608 43.5981 363.785 43.9735V43.9735ZM328.512 136.507C328.159 152.38 317.753 158.024 308.935 158.024C304.232 158.024 289.006 156.437 289.006 136.566C289.006 128.747 289.006 120.752 289.006 113.051C289.006 96.3544 288.594 79.1293 289.006 61.9629C289.186 57.1004 291.226 52.4927 294.705 49.0906C298.183 45.6884 302.835 43.7515 307.701 43.6795V43.6795C319.87 43.6795 326.278 48.9118 326.748 59.1998C327.395 73.368 327.806 86.3015 328.1 98.0005C325.696 96.7278 322.887 96.4532 320.281 97.2363C318.035 97.837 316.053 99.1686 314.648 101.021C313.243 102.873 312.495 105.141 312.521 107.466C312.34 109.68 312.884 111.893 314.072 113.77C315.26 115.647 317.027 117.087 319.106 117.871C320.051 118.195 321.046 118.354 322.045 118.342C324.293 118.31 326.482 117.614 328.335 116.343C328.512 123.456 328.512 130.276 328.335 136.507H328.512ZM326.631 110.64C326.133 111.584 325.314 112.318 324.322 112.71C323.33 113.102 322.23 113.126 321.222 112.778C320.213 112.43 319.363 111.733 318.824 110.813C318.285 109.892 318.093 108.809 318.283 107.76C318.214 106.588 318.551 105.429 319.236 104.476C319.921 103.524 320.913 102.836 322.045 102.527C322.833 102.226 323.691 102.16 324.516 102.337C325.34 102.515 326.095 102.928 326.689 103.527C327.309 104.619 327.615 105.861 327.573 107.117C327.532 108.372 327.145 109.591 326.454 110.64H326.631Z" fill="#080808"></path><path d="M515.99 46.0317H480.834L452.733 78.9536L447.089 86.2434V0H417.812V155.673H447.089V122.222L457.613 111.699L485.831 155.673H519.459L476.366 91.7108L515.99 46.0317Z" fill="#080808"></path><path d="M592.947 46.0327L572.723 114.228L552.617 46.0327H520.812L559.202 155.968L555.792 165.022C554.592 168.444 552.326 171.391 549.325 173.428C545.493 175.372 541.208 176.246 536.921 175.956H532.453V198.179C536.668 199.446 541.044 200.1 545.445 200.119C552.415 200.364 559.287 198.421 565.097 194.562C570.906 190.703 575.362 185.122 577.838 178.602L580.307 172.723L624.399 46.0327H592.947Z" fill="#080808"></path><path d="M627.638 125.573C623.306 125.466 619.098 127.023 615.88 129.924C614.398 131.372 613.236 133.113 612.466 135.037C611.697 136.96 611.338 139.023 611.412 141.094C611.341 143.188 611.718 145.274 612.519 147.21C613.32 149.147 614.526 150.89 616.056 152.322C619.416 155.094 623.635 156.61 627.99 156.61C632.346 156.61 636.565 155.094 639.925 152.322C641.455 150.89 642.661 149.147 643.462 147.21C644.263 145.274 644.64 143.188 644.569 141.094C644.638 138.977 644.254 136.869 643.443 134.912C642.632 132.956 641.413 131.195 639.866 129.747C636.495 126.806 632.104 125.306 627.638 125.573V125.573Z" fill="#080808"></path><path d="M687.252 75.0726C688.94 72.9377 691.053 71.177 693.457 69.9022C695.862 68.6274 698.505 67.8663 701.219 67.6673C703.933 67.4683 706.659 67.8357 709.224 68.7462C711.789 69.6566 714.136 71.0903 716.117 72.9562C719.574 76.7634 721.446 81.7476 721.349 86.8891H748.863C749.043 81.0928 748.012 75.3225 745.836 69.9472C743.66 64.572 740.385 59.71 736.223 55.6722C727.191 47.5893 715.351 43.3682 703.242 43.9144C696.338 43.5557 689.439 44.7236 683.037 47.3351C676.636 49.9466 670.889 53.9373 666.205 59.0232C656.738 70.3357 651.87 84.7939 652.566 99.5288V101.469C651.688 116.415 656.545 131.133 666.146 142.621C670.872 147.661 676.638 151.613 683.044 154.202C689.449 156.79 696.342 157.954 703.242 157.612C711.197 157.712 719.067 155.961 726.229 152.498C732.89 149.279 738.542 144.298 742.572 138.094C746.445 131.976 748.485 124.877 748.451 117.636H721.349C721.365 119.855 720.906 122.052 720.004 124.08C719.102 126.108 717.776 127.92 716.117 129.394C712.445 132.484 707.743 134.079 702.948 133.862C699.909 134.067 696.868 133.494 694.111 132.198C691.355 130.902 688.974 128.925 687.193 126.454C683.183 119.063 681.368 110.68 681.961 102.292V99.2936C681.324 90.8767 683.163 82.4573 687.252 75.0726Z" fill="#080808"></path><path d="M794.175 132.041L846.144 63.2579V46.0327H758.255V69.6071H808.343L756.727 137.861V155.674H847.791V132.041H794.175Z" fill="#080808"></path><path d="M298.064 91.651C302.328 87.5809 307.088 84.065 312.232 81.1866C312.553 81.0209 312.836 80.7914 313.064 80.5123C313.293 80.2331 313.462 79.9102 313.561 79.5633C313.66 79.2164 313.687 78.8528 313.641 78.4951C313.594 78.1373 313.475 77.7929 313.29 77.4829C312.932 76.8591 312.345 76.3996 311.653 76.202C310.962 76.0044 310.22 76.0843 309.587 76.4247C304.024 79.5093 298.886 83.3035 294.302 87.7122C293.894 88.083 293.61 88.5694 293.487 89.1062C293.363 89.643 293.407 90.2046 293.611 90.716C293.816 91.2274 294.172 91.6642 294.631 91.9678C295.091 92.2715 295.632 92.4276 296.183 92.4153C296.881 92.3921 297.548 92.1212 298.064 91.651V91.651Z" fill="#080808"></path><path d="M312.695 84.3036L299.35 95.062C299.071 95.2848 298.838 95.5608 298.666 95.874C298.494 96.1872 298.386 96.5314 298.348 96.8868C298.309 97.2421 298.342 97.6015 298.443 97.9442C298.545 98.2869 298.713 98.606 298.939 98.8832C299.151 99.1769 299.423 99.4226 299.736 99.6045C300.049 99.7864 300.398 99.9005 300.758 99.9393C301.118 99.9781 301.482 99.9407 301.827 99.8297C302.172 99.7187 302.49 99.5364 302.76 99.2948L316.105 88.5952C316.393 88.3719 316.633 88.0928 316.811 87.7745C316.988 87.4561 317.099 87.1052 317.138 86.7428C317.176 86.3804 317.141 86.014 317.034 85.6655C316.927 85.3171 316.751 84.9938 316.517 84.7151C316.058 84.164 315.402 83.8129 314.689 83.7361C313.976 83.6593 313.261 83.8628 312.695 84.3036V84.3036Z" fill="#080808"></path><path d="M297.007 59.2595C303.618 63.7559 310.819 67.3169 318.406 69.8415H319.229C319.946 69.8271 320.635 69.5559 321.169 69.0773C321.511 68.7027 321.751 68.2459 321.864 67.7514C321.977 67.257 321.961 66.7416 321.816 66.2554C321.816 66.2554 319.876 60.3765 318.053 52.2048C317.86 51.4751 317.398 50.8452 316.76 50.4412C316.08 50.1726 315.323 50.1726 314.644 50.4412C306.354 52.7339 298.124 54.5564 298.065 54.5564C297.54 54.6525 297.055 54.902 296.671 55.2734C296.287 55.6448 296.022 56.1215 295.909 56.6433C295.796 57.1652 295.84 57.7088 296.035 58.2058C296.23 58.7028 296.569 59.1308 297.007 59.4359V59.2595ZM313.35 56.2613L315.055 62.7868C311.847 61.4549 308.725 59.9233 305.708 58.2013C307.942 57.6722 310.587 57.0255 313.35 56.2613V56.2613Z" fill="#080808"></path><path d="M316.634 131.511C314.827 128.072 312.68 124.823 310.226 121.811C309.907 121.405 309.473 121.103 308.98 120.946C308.488 120.789 307.959 120.783 307.463 120.929C303.808 122.112 300.386 123.922 297.352 126.279L296.058 127.161C295.47 127.567 295.058 128.181 294.905 128.88C294.752 129.578 294.87 130.308 295.235 130.923L306.993 149.089C307.243 149.487 307.59 149.814 308.001 150.04C308.413 150.267 308.875 150.384 309.345 150.382C309.798 150.375 310.243 150.254 310.638 150.029C314.347 148.009 317.921 145.751 321.337 143.269C321.895 142.806 322.27 142.16 322.396 141.446C322.435 141.091 322.403 140.731 322.302 140.388C322.201 140.045 322.033 139.725 321.808 139.447C319.884 136.937 318.154 134.284 316.634 131.511V131.511ZM310.05 143.974L301.29 130.218C303.109 128.837 305.082 127.673 307.169 126.749C308.918 129.099 310.49 131.575 311.872 134.156C312.989 136.155 314.165 138.213 315.694 140.447C313.636 141.858 311.579 143.092 310.05 143.974V143.974Z" fill="#080808"></path><path d="M111.696 125.75C102.584 125.75 93.589 126.044 87.8865 126.279C95.7642 116.99 113.636 96.2376 126.04 83.0689C130.335 79.1146 133.392 74.001 134.842 68.3464C136.292 62.6918 136.073 56.7382 134.212 51.2052C131.743 45.3263 124.453 35.8613 103.524 35.8613C81.5961 35.8613 63.9006 36.2729 54.4356 36.4492H49.4385C43.6318 36.6178 38.1206 39.0475 34.0793 43.2205C30.0381 47.3936 27.7864 52.9799 27.8042 58.789C27.6379 61.6086 28.0764 64.4312 29.0904 67.0674C30.1043 69.7037 31.6702 72.0927 33.6831 74.0741C37.5505 77.7022 42.6662 79.7022 47.9688 79.6591C53.8477 79.6591 64.0182 79.6591 75.8347 79.1888C59.609 95.5321 45.3233 110.347 28.8036 127.69C25.6623 130.899 23.5057 134.941 22.589 139.338C21.6722 143.734 22.0335 148.301 23.6302 152.499C25.6424 156.713 28.8641 160.233 32.8847 162.61C36.9052 164.987 41.5424 166.113 46.2051 165.844H58.9035H79.8324H93.1187H111.931C126.687 165.55 135.976 157.437 136.152 144.68C136.281 142.426 135.94 140.169 135.151 138.054C134.362 135.939 133.141 134.011 131.567 132.393C126.012 127.763 118.919 125.391 111.696 125.75ZM112.401 160.2C101.702 160.2 90.9435 160.2 80.4791 160.2H59.4914H46.6166C43.0153 160.483 39.4116 159.683 36.2686 157.902C33.1257 156.121 30.5874 153.441 28.98 150.206C27.7437 146.993 27.4746 143.489 28.2058 140.125C28.9371 136.761 30.6367 133.685 33.0952 131.276C51.0258 112.169 66.5461 96.0024 84.8882 77.7778C85.2795 77.3842 85.5401 76.8797 85.6348 76.3328C85.7294 75.7859 85.6535 75.2231 85.4173 74.7208C85.2085 74.242 84.8625 73.8358 84.4231 73.5533C83.9837 73.2708 83.4705 73.1248 82.9482 73.1335V73.1335C68.4273 74.1917 55.0235 74.1329 48.3215 74.0741C44.4021 74.0824 40.6236 72.6129 37.7395 69.9589C36.255 68.5131 35.0903 66.7719 34.3207 64.8479C33.5511 62.9239 33.1937 60.8598 33.2716 58.789C33.2377 54.466 34.888 50.2997 37.8727 47.1723C40.8574 44.0449 44.9423 42.2021 49.2621 42.0342H54.318C63.783 42.0342 81.4197 41.4463 103.289 41.4463C116.517 41.4463 125.629 45.7379 128.98 53.498C130.401 58.0562 130.486 62.9261 129.225 67.5313C127.965 72.1364 125.411 76.2839 121.866 79.4827C117.399 84.1858 112.284 89.8296 107.169 95.5909C103.626 91.357 99.3185 87.8271 94.4708 85.1853C93.8329 84.9142 93.1176 84.8873 92.4611 85.1099C91.8047 85.3324 91.2532 85.7887 90.9116 86.3919C90.5701 86.995 90.4625 87.7027 90.6093 88.3801C90.7561 89.0575 91.1471 89.6571 91.7078 90.0647C95.947 92.3583 99.7163 95.4296 102.819 99.1182C103.05 99.3997 103.328 99.6384 103.642 99.8237L100.938 102.94C100.835 102.722 100.696 102.523 100.526 102.352C96.997 98.6894 93.0508 95.4536 88.7683 92.7102C88.4648 92.5013 88.1226 92.3551 87.7618 92.2803C87.4009 92.2056 87.0288 92.2038 86.6673 92.275C86.3057 92.3462 85.9621 92.489 85.6566 92.695C85.351 92.901 85.0898 93.166 84.8882 93.4745C84.4874 94.0995 84.349 94.8572 84.5031 95.5835C84.6571 96.3098 85.0912 96.9462 85.7113 97.3546C89.605 99.7619 93.2141 102.602 96.4697 105.82C96.718 106.118 97.0434 106.342 97.4103 106.467C87.5925 117.754 79.7736 127.161 79.4797 127.337C79.1415 127.74 78.928 128.232 78.8653 128.754C78.8027 129.276 78.8936 129.805 79.1269 130.276C79.3547 130.749 79.7149 131.145 80.1637 131.416C80.6126 131.688 81.1306 131.823 81.6548 131.805C81.6548 131.805 96.4697 131.217 111.52 131.041C117.458 130.487 123.379 132.257 128.039 135.979C129.104 137.068 129.926 138.369 130.453 139.797C130.979 141.226 131.199 142.749 131.096 144.268C130.92 154.203 124.042 159.965 112.166 160.2H112.401Z" fill="#080808"></path><path d="M79.9601 107.996C78.884 106.24 77.3059 104.848 75.4298 103.999C73.5537 103.15 71.466 102.884 69.4368 103.234C68.0758 103.466 66.7775 103.978 65.624 104.737C64.4706 105.496 63.4868 106.485 62.7349 107.643C62.0178 108.62 61.5205 109.741 61.2769 110.928C61.0334 112.115 61.0495 113.341 61.324 114.522C61.953 116.718 63.3194 118.63 65.1933 119.936C67.0672 121.243 69.334 121.863 71.612 121.694H72.5526C74.4757 121.574 76.3277 120.923 77.9024 119.813C79.5867 118.404 80.7175 116.444 81.0942 114.281C81.4709 112.118 81.0691 109.891 79.9601 107.996V107.996ZM74.5515 115.462C73.8474 115.917 73.0369 116.181 72.1999 116.227C71.6708 116.227 67.3792 116.227 66.615 113.17C66.5496 112.736 66.5732 112.293 66.6844 111.868C66.7955 111.444 66.9919 111.047 67.2616 110.7C67.9291 109.64 68.9834 108.881 70.2011 108.584H71.1417C71.9775 108.566 72.8032 108.769 73.5359 109.171C74.2686 109.574 74.8825 110.162 75.3157 110.877C75.6913 111.623 75.8196 112.47 75.6822 113.294C75.5448 114.119 75.1488 114.878 74.5515 115.462V115.462Z" fill="#080808"></path><path d="M118.52 137.743C117.202 137.096 115.763 136.73 114.295 136.67C112.828 136.609 111.363 136.854 109.996 137.39C107.535 138.069 105.429 139.668 104.115 141.857C102.802 144.047 102.381 146.657 102.941 149.148C103.337 150.806 104.231 152.303 105.502 153.438C106.774 154.573 108.363 155.292 110.055 155.497H111.23C113.76 155.411 116.203 154.549 118.226 153.028C119.921 151.916 121.235 150.311 121.992 148.43C122.749 146.549 122.912 144.482 122.459 142.505C122.174 141.479 121.675 140.525 120.997 139.705C120.318 138.884 119.474 138.216 118.52 137.743V137.743ZM115.052 148.737C114.465 149.243 113.783 149.629 113.047 149.871C112.31 150.113 111.533 150.207 110.76 150.148C110.191 150.089 109.652 149.862 109.212 149.495C108.772 149.129 108.452 148.64 108.291 148.09C108.143 147.503 108.114 146.892 108.206 146.294C108.299 145.695 108.51 145.122 108.828 144.606C109.146 144.091 109.564 143.645 110.057 143.294C110.551 142.943 111.11 142.695 111.701 142.564C113.08 142.023 114.613 142.023 115.992 142.564C116.298 142.727 116.566 142.953 116.779 143.226C116.991 143.5 117.144 143.815 117.227 144.151C117.364 145.045 117.23 145.96 116.842 146.777C116.455 147.595 115.831 148.277 115.052 148.737Z" fill="#080808"></path><path d="M88.6562 139.8C88.94 139.581 89.1776 139.308 89.3551 138.997C89.5326 138.686 89.6466 138.343 89.6903 137.987C89.7341 137.632 89.7068 137.271 89.61 136.926C89.5132 136.581 89.3489 136.259 89.1265 135.978C88.9176 135.683 88.6505 135.434 88.3415 135.247C88.0326 135.059 87.6885 134.936 87.3304 134.887C86.9723 134.837 86.6079 134.862 86.2596 134.958C85.9113 135.055 85.5865 135.222 85.3053 135.449C80.8415 138.911 77.0886 143.203 74.2529 148.089C74.0152 148.501 73.8902 148.968 73.8906 149.443C73.891 149.919 74.0168 150.386 74.2553 150.797C74.4938 151.209 74.8366 151.55 75.249 151.787C75.6614 152.023 76.129 152.147 76.6045 152.145C77.082 152.153 77.5528 152.032 77.9668 151.794C78.3808 151.556 78.7226 151.21 78.9561 150.793C81.4591 146.544 84.7516 142.812 88.6562 139.8V139.8Z" fill="#080808"></path><path d="M91.5396 141.916C87.7708 145.189 84.5201 149.015 81.8982 153.263C81.5389 153.884 81.4302 154.619 81.594 155.318C81.7578 156.017 82.182 156.628 82.78 157.025C83.2301 157.277 83.734 157.419 84.2497 157.437C84.7093 157.429 85.1597 157.306 85.5601 157.08C85.9604 156.855 86.2981 156.532 86.5425 156.143C88.8766 152.359 91.7705 148.949 95.1257 146.031C95.3959 145.796 95.6171 145.51 95.7766 145.189C95.9362 144.868 96.0309 144.519 96.0555 144.161C96.0801 143.803 96.034 143.444 95.9198 143.105C95.8057 142.765 95.6257 142.451 95.3903 142.181C95.1548 141.911 94.8684 141.689 94.5475 141.53C94.2265 141.37 93.8773 141.276 93.5197 141.251C93.1621 141.226 92.8032 141.273 92.4635 141.387C92.1237 141.501 91.8098 141.681 91.5396 141.916V141.916Z" fill="#080808"></path><path d="M105.001 82.3037C105.236 82.736 105.585 83.0958 106.01 83.3444C106.434 83.5931 106.919 83.7211 107.411 83.7147C107.923 83.6768 108.414 83.4973 108.829 83.1961C109.244 82.895 109.567 82.4842 109.763 82.0098C109.763 82.0098 114.936 69.0174 119.815 54.9081C119.958 54.4448 119.979 53.9526 119.876 53.4789C119.773 53.0052 119.55 52.5661 119.228 52.2038C118.907 51.8508 118.499 51.5887 118.045 51.4442C117.591 51.2997 117.106 51.2778 116.641 51.3807C109.747 52.6102 103.006 54.5813 96.535 57.2596C95.8861 57.5339 95.3664 58.0458 95.0823 58.6905C94.7982 59.3352 94.7711 60.0641 95.0065 60.7282C97.8488 68.1367 101.188 75.3449 105.001 82.3037V82.3037ZM113.172 57.7299C110.88 64.3143 108.646 70.3108 107.293 74.3672C105.589 70.9575 103.296 66.2543 101.415 61.5512C105.241 60.0399 109.17 58.8022 113.172 57.8475V57.7299Z" fill="#080808"></path><path d="M79.6064 47.0309C79.2865 46.8703 78.9378 46.7749 78.5807 46.7501C78.2236 46.7254 77.8651 46.7717 77.526 46.8866C77.187 47.0014 76.8741 47.1825 76.6055 47.4191C76.3369 47.6558 76.1181 47.9435 75.9615 48.2655C73.8403 52.6177 72.4311 57.2821 71.7875 62.0808C71.738 62.4364 71.7599 62.7983 71.8517 63.1453C71.9436 63.4924 72.1036 63.8177 72.3225 64.1022C72.5414 64.3868 72.8148 64.6249 73.1266 64.8027C73.4385 64.9805 73.7827 65.0945 74.1391 65.1379H74.4918C75.1609 65.1418 75.8077 64.8976 76.3072 64.4524C76.8067 64.0072 77.1234 63.3927 77.1961 62.7275C77.7538 58.5214 78.9845 54.4323 80.841 50.617C81.1468 49.9768 81.1887 49.2421 80.9578 48.5712C80.7268 47.9004 80.2415 47.3472 79.6064 47.0309V47.0309Z" fill="#080808"></path><path d="M89.3554 52.9098C89.6506 52.2743 89.6934 51.5505 89.4751 50.8847C89.2568 50.2189 88.7937 49.6609 88.1796 49.3236C87.5158 49.0455 86.7697 49.0372 86.1 49.3007C85.4302 49.5642 84.8897 50.0787 84.5935 50.7346C82.8125 54.9297 81.4918 59.3057 80.6546 63.7857C80.5867 64.1372 80.5892 64.4987 80.662 64.8492C80.7349 65.1997 80.8766 65.5322 81.0789 65.8275C81.2812 66.1228 81.5402 66.375 81.8408 66.5695C82.1413 66.7639 82.4775 66.8968 82.8298 66.9603H83.3001C83.9398 66.9586 84.559 66.7349 85.0522 66.3275C85.5454 65.9201 85.8819 65.3542 86.0044 64.7264C86.6625 60.6716 87.7869 56.7064 89.3554 52.9098V52.9098Z" fill="#080808"></path><path d="M63.3792 52.0283C62.9677 52.0283 53.4439 48.0307 48.682 46.7373C48.0423 46.5715 47.3643 46.6405 46.7711 46.9317C46.1779 47.2229 45.7087 47.7171 45.4486 48.3246C44.3408 51.0741 43.3793 53.8803 42.5679 56.7314C42.1564 58.0248 41.8037 59.2594 41.3334 60.5527C41.1186 61.2165 41.1629 61.9369 41.4573 62.5694C41.7518 63.2018 42.2745 63.6995 42.9207 63.9625C48.7996 66.2553 51.2099 67.0783 57.2064 69.0183C57.4778 69.0754 57.7581 69.0754 58.0294 69.0183C58.4521 69.1392 58.9002 69.1392 59.3228 69.0183C59.6585 68.8494 59.9534 68.6094 60.1869 68.315C60.4204 68.0206 60.5869 67.6788 60.6749 67.3135C61.7357 63.3645 63.0715 59.4945 64.6726 55.732C64.8305 55.3912 64.9123 55.0201 64.9123 54.6444C64.9123 54.2688 64.8305 53.8977 64.6726 53.5568C64.4529 52.9006 63.99 52.3536 63.3792 52.0283ZM56.207 62.9631C52.9148 61.8461 50.7396 61.0818 47.3299 59.7885C47.3299 59.3182 47.3299 58.8478 47.8002 58.3187C48.3293 56.4963 48.9172 54.615 49.6226 52.7338C52.5621 53.6744 56.2658 55.0854 58.7349 56.0848C58.0294 57.7896 57.0888 60.2588 56.207 62.9631Z" fill="#080808"></path><path d="M68.9002 135.215C64.5887 132.917 60.1077 130.951 55.4964 129.336C52.9684 128.396 50.1466 127.396 46.2665 125.809C45.6341 125.528 44.9167 125.506 44.2683 125.748C43.6199 125.99 43.0921 126.476 42.7979 127.102C35.9196 141.094 36.2136 142.035 38.33 143.446C40.9755 145.209 57.9655 151.558 61.3752 152.793C61.6857 152.855 62.0054 152.855 62.3159 152.793C62.6835 152.876 63.0652 152.876 63.4329 152.793C64.0843 152.487 64.5905 151.938 64.8438 151.264C64.8438 151.264 67.019 145.386 70.1348 138.684C70.3912 138.055 70.4071 137.354 70.1794 136.714C69.9517 136.074 69.4963 135.54 68.9002 135.215V135.215ZM60.7286 146.973C53.5563 144.269 46.3253 141.447 43.0919 139.918C43.7974 138.096 45.2083 135.039 46.6192 132.04C49.4411 133.157 51.6751 133.922 53.6739 134.686C57.2427 135.911 60.7368 137.344 64.1383 138.978C62.6098 142.329 61.4928 145.15 60.7286 146.973Z" fill="#080808"></path><path d="M210.165 64.6685C211.087 64.6599 212 64.5011 212.87 64.1982C214.35 63.7547 215.718 63.0009 216.884 61.9873C218.049 60.9736 218.986 59.7232 219.631 58.3193C220.382 56.5957 220.583 54.6816 220.204 52.8397C219.825 50.9977 218.885 49.3181 217.514 48.0313C216.133 46.9393 214.424 46.3452 212.664 46.3452C210.904 46.3452 209.195 46.9393 207.814 48.0313C205.881 49.2319 204.39 51.0267 203.563 53.1465C202.736 55.2663 202.619 57.5969 203.228 59.789C203.691 61.2498 204.62 62.5184 205.873 63.3999C207.126 64.2814 208.634 64.7271 210.165 64.6685ZM210.871 52.9107C211.165 52.9107 212.87 51.6762 213.869 52.4992C214.33 52.9957 214.641 53.6126 214.766 54.2785C214.891 54.9443 214.825 55.632 214.575 56.2617C214.248 56.9763 213.768 57.6102 213.168 58.1182C212.569 58.6263 211.865 58.996 211.106 59.2012C210.165 59.5539 208.696 59.2012 208.343 58.4957C208.036 57.3574 208.118 56.1492 208.576 55.0629C209.034 53.9765 209.842 53.0742 210.871 52.4992V52.9107Z" fill="#080808"></path><path d="M241.805 44.326C197.831 20.8104 167.554 46.3248 156.62 58.4941C141.57 75.1314 131.752 113.815 152.446 143.15C157.528 149.965 164.029 155.597 171.499 159.657C178.969 163.717 187.231 166.108 195.714 166.666C198.262 166.901 200.79 167.018 203.298 167.018C221.698 167.266 239.524 160.618 253.269 148.382C267.202 135.214 274.609 111.581 271.728 89.5935C270.788 80.1865 267.572 71.1497 262.359 63.2632C257.145 55.3766 250.091 48.8772 241.805 44.326V44.326ZM183.78 158.729C183.806 158.593 183.806 158.454 183.78 158.318C184.09 152.338 185.116 146.416 186.837 140.681C191.755 141.373 196.625 142.375 201.417 143.679C199.641 149.409 198.556 155.329 198.183 161.316H196.126C191.941 160.828 187.809 159.962 183.78 158.729V158.729ZM249.506 144.385C236.9 155.554 220.61 161.668 203.768 161.551C204.142 155.169 205.429 148.873 207.59 142.856C207.818 142.177 207.774 141.436 207.467 140.789C207.16 140.142 206.614 139.64 205.943 139.388C200.146 137.455 194.183 136.057 188.13 135.214H185.309C184.687 135.092 184.043 135.198 183.493 135.51C182.943 135.823 182.524 136.323 182.31 136.919C180.236 143.475 178.876 150.235 178.254 157.083C169.698 153.631 162.298 147.821 156.913 140.328C138.101 113.638 147.155 77.3066 160.617 62.433C166.355 55.7871 173.407 50.4022 181.33 46.6179C189.253 42.8337 197.874 40.7322 206.649 40.4459C218.086 40.6746 229.284 43.7671 239.218 49.4406C246.735 53.5868 253.13 59.4998 257.852 66.6693C262.573 73.8388 265.48 82.0495 266.32 90.5929C267.72 100.255 266.936 110.108 264.027 119.427C261.117 128.746 256.155 137.295 249.506 144.444V144.385Z" fill="#080808"></path><path d="M228.452 96.8252C227.992 93.9482 226.939 91.1981 225.36 88.7492C223.781 86.3002 221.711 84.2057 219.281 82.5983C216.487 80.879 213.356 79.7794 210.101 79.3737C206.845 78.968 203.54 79.2658 200.41 80.2468C196.263 81.2993 192.548 83.6219 189.787 86.8897C187.025 90.1575 185.354 94.2069 185.007 98.4713C184.489 101.453 184.643 104.512 185.457 107.426C186.272 110.34 187.726 113.036 189.714 115.317C191.702 117.599 194.174 119.407 196.95 120.612C199.726 121.817 202.736 122.387 205.76 122.281C207.957 122.285 210.148 122.028 212.285 121.517C214.987 120.993 217.556 119.933 219.841 118.4C222.125 116.866 224.079 114.889 225.586 112.587C227.094 110.285 228.124 107.704 228.616 104.997C229.109 102.289 229.053 99.5107 228.452 96.8252V96.8252ZM211.227 116.226C208.557 116.995 205.745 117.135 203.011 116.635C200.277 116.136 197.697 115.009 195.472 113.345C193.53 111.519 192.061 109.249 191.191 106.73C190.32 104.211 190.074 101.518 190.474 98.8829C190.745 95.7554 191.983 92.7898 194.016 90.3983C196.05 88.0067 198.778 86.3078 201.821 85.5378C203.736 85.0072 205.712 84.7305 207.7 84.7147C211.416 84.6299 215.036 85.9023 217.882 88.2937C220.728 90.6852 222.604 94.0317 223.161 97.7071C223.643 99.7093 223.714 101.789 223.37 103.819C223.025 105.85 222.272 107.789 221.157 109.52C220.041 111.251 218.586 112.738 216.879 113.891C215.172 115.043 213.25 115.838 211.227 116.226Z" fill="#080808"></path><path d="M166.025 112.169C164.634 112.492 163.338 113.14 162.245 114.06C161.152 114.979 160.292 116.145 159.735 117.46C159.047 118.924 158.719 120.531 158.781 122.148C158.842 123.764 159.29 125.342 160.088 126.749C160.874 128.213 161.961 129.495 163.279 130.508C164.596 131.521 166.113 132.244 167.73 132.628C168.415 132.682 169.103 132.682 169.788 132.628C171.67 132.633 173.511 132.081 175.079 131.041C176.641 129.773 177.774 128.053 178.321 126.116C178.868 124.18 178.804 122.122 178.136 120.223C177.391 117.669 175.767 115.46 173.551 113.986C171.335 112.512 168.67 111.869 166.025 112.169ZM171.904 126.867C170.987 127.421 169.888 127.59 168.847 127.337C167.953 127.106 167.121 126.68 166.409 126.091C165.698 125.502 165.126 124.763 164.732 123.927C164.397 123.272 164.222 122.547 164.222 121.811C164.222 121.075 164.397 120.349 164.732 119.694C164.923 119.181 165.228 118.718 165.626 118.341C166.023 117.964 166.502 117.683 167.025 117.519H167.671C168.903 117.669 170.062 118.187 170.995 119.005C171.928 119.823 172.594 120.903 172.904 122.105C173.201 122.908 173.271 123.778 173.105 124.618C172.939 125.459 172.544 126.237 171.963 126.867H171.904Z" fill="#080808"></path><path d="M170.075 102.939C170.711 102.948 171.33 102.733 171.823 102.331C172.316 101.93 172.652 101.367 172.771 100.742C172.89 100.117 172.786 99.4707 172.475 98.9155C172.165 98.3604 171.669 97.9323 171.075 97.7066C166.61 96.059 162.587 93.4033 159.317 89.9464C159.074 89.676 158.778 89.4574 158.449 89.3037C158.119 89.15 157.762 89.0643 157.398 89.0519C157.035 89.0394 156.673 89.1004 156.333 89.2313C155.994 89.3621 155.684 89.56 155.423 89.8132C155.162 90.0664 154.955 90.3696 154.814 90.7048C154.672 91.04 154.6 91.4002 154.602 91.7639C154.603 92.1276 154.677 92.4873 154.821 92.8215C154.964 93.1557 155.174 93.4575 155.437 93.7089C159.193 97.7469 163.845 100.848 169.017 102.762L170.075 102.939Z" fill="#080808"></path><path d="M177.31 90.5935C173.082 88.78 169.233 86.1874 165.963 82.951C165.716 82.6931 165.42 82.4879 165.091 82.3477C164.763 82.2075 164.41 82.1353 164.053 82.1353C163.696 82.1353 163.342 82.2075 163.014 82.3477C162.686 82.4879 162.389 82.6931 162.142 82.951C161.636 83.458 161.352 84.1452 161.352 84.8616C161.352 85.578 161.636 86.2652 162.142 86.7722C165.86 90.47 170.249 93.4232 175.076 95.473C175.443 95.5604 175.825 95.5604 176.193 95.473C176.813 95.4762 177.416 95.266 177.9 94.8775C178.384 94.489 178.719 93.946 178.85 93.3395C178.981 92.7329 178.899 92.0998 178.619 91.5463C178.338 90.9928 177.876 90.5526 177.31 90.2996V90.5935Z" fill="#080808"></path><path d="M232.332 134.509C229.13 137.658 225.248 140.031 220.986 141.446C220.294 141.675 219.72 142.168 219.39 142.817C219.06 143.467 218.999 144.221 219.222 144.915C219.412 145.453 219.761 145.921 220.223 146.257C220.685 146.593 221.238 146.781 221.809 146.796C222.1 146.851 222.399 146.851 222.691 146.796C227.725 145.132 232.31 142.337 236.095 138.624C236.617 138.125 236.92 137.439 236.936 136.717C236.953 135.995 236.682 135.296 236.183 134.773C235.684 134.251 234.998 133.948 234.276 133.932C233.554 133.915 232.854 134.186 232.332 134.685V134.509Z" fill="#080808"></path><path d="M231.398 126.219C230.881 125.71 230.184 125.424 229.458 125.424C228.732 125.424 228.035 125.71 227.518 126.219C223.971 129.716 219.695 132.386 214.996 134.038C214.359 134.228 213.814 134.645 213.465 135.21C213.117 135.776 212.988 136.45 213.104 137.104C213.221 137.758 213.573 138.346 214.096 138.757C214.618 139.167 215.273 139.371 215.936 139.329C216.228 139.386 216.527 139.386 216.818 139.329C222.297 137.354 227.289 134.227 231.457 130.158C231.714 129.897 231.917 129.588 232.054 129.247C232.19 128.907 232.258 128.543 232.252 128.177C232.247 127.81 232.169 127.448 232.022 127.112C231.875 126.776 231.663 126.473 231.398 126.219V126.219Z" fill="#080808"></path><path d="M255.674 95.4732C255.265 95.23 254.798 95.1016 254.322 95.1016C253.846 95.1016 253.379 95.23 252.969 95.4732C247.372 98.1764 241.935 101.199 236.685 104.527C236.352 104.742 236.069 105.027 235.856 105.362C235.643 105.697 235.505 106.074 235.45 106.467C235.4 106.85 235.427 107.24 235.528 107.613C235.628 107.986 235.802 108.336 236.038 108.642C241.069 115.984 245.25 123.873 248.502 132.158C248.715 132.654 249.067 133.079 249.515 133.381C249.964 133.683 250.489 133.85 251.029 133.862H251.382C251.98 133.788 252.536 133.517 252.962 133.091C253.388 132.665 253.66 132.109 253.734 131.511C253.734 131.511 255.968 115.461 256.85 98.2951C256.961 97.761 256.909 97.2057 256.699 96.7021C256.489 96.1985 256.132 95.7701 255.674 95.4732V95.4732ZM249.501 120.576C247.392 115.986 244.935 111.564 242.152 107.349C245.386 105.409 248.443 103.704 251.147 102.234C250.677 109.171 250.089 115.579 249.501 120.576V120.576Z" fill="#080808"></path><path d="M196.465 66.6084C196.565 66.0621 196.495 65.4983 196.263 64.9934C196.032 64.4885 195.651 64.0671 195.171 63.7865C188.904 60.082 182.159 57.2534 175.124 55.3797C174.571 55.2129 173.979 55.2318 173.437 55.4335C172.896 55.6352 172.435 56.0086 172.126 56.4967C170.363 59.1422 175.066 78.4837 175.066 78.6601C175.177 79.0722 175.384 79.4522 175.67 79.769C175.956 80.0857 176.313 80.3302 176.712 80.4826C177.039 80.5698 177.384 80.5698 177.711 80.4826C178.21 80.4724 178.696 80.3304 179.122 80.071C179.122 80.071 195.936 69.6066 196.465 66.6084ZM179.534 73.6043C178.652 69.6654 177.829 64.9035 177.358 61.8465C181.402 63.155 185.334 64.7868 189.116 66.7259C186.647 68.5484 182.767 71.3703 179.534 73.6043V73.6043Z" fill="#080808"></path><path d="M227.628 66.1382C235.72 69.9418 243.386 74.5925 250.497 80.0124C250.953 80.3597 251.511 80.5458 252.084 80.5415C252.508 80.5347 252.925 80.4304 253.302 80.2367C253.679 80.043 254.007 79.7651 254.259 79.4245C254.479 79.14 254.639 78.8148 254.731 78.4677C254.823 78.1206 254.845 77.7586 254.796 77.4029C254.747 77.0472 254.627 76.7048 254.444 76.3958C254.261 76.0868 254.018 75.8174 253.73 75.6032C246.4 70.0337 238.521 65.2272 230.215 61.2587C229.557 60.9474 228.805 60.9021 228.115 61.1321C227.425 61.3621 226.85 61.8498 226.511 62.4933C226.178 63.1252 226.109 63.8631 226.318 64.546C226.527 65.2289 226.998 65.8013 227.628 66.1382Z" fill="#080808"></path><path d="M223.393 75.6026C231.123 78.9702 238.377 83.3383 244.969 88.5949C245.453 88.9802 246.055 89.1877 246.674 89.1828C247.084 89.1828 247.49 89.0872 247.857 88.9035C248.224 88.7199 248.544 88.4532 248.79 88.1246C249.016 87.8474 249.184 87.5283 249.286 87.1856C249.387 86.8429 249.42 86.4835 249.381 86.1282C249.343 85.7728 249.235 85.4286 249.063 85.1154C248.891 84.8022 248.658 84.5262 248.379 84.3034C241.413 78.7654 233.767 74.1423 225.627 70.5467C224.962 70.2619 224.213 70.2434 223.535 70.495C222.856 70.7467 222.301 71.2492 221.982 71.8989C221.818 72.2325 221.724 72.5964 221.706 72.968C221.689 73.3396 221.748 73.7108 221.88 74.0584C222.013 74.406 222.215 74.7225 222.476 74.9883C222.736 75.254 223.048 75.4631 223.393 75.6026Z" fill="#080808"></path></g><defs><clipPath id="zonky-clip-path-a"><path fill="#fff" d="M0 0h136v32H0z"></path></clipPath></defs></svg>